<mxfile host="app.diagrams.net" modified="2022-01-24T17:24:09.068Z" agent="5.0 (Macintosh; Intel Mac OS X 10_15_7) AppleWebKit/605.1.15 (KHTML, like Gecko) Version/15.2 Safari/605.1.15" etag="-Ez39cnFV_MBlgAYqTAB" version="16.4.5" type="github">
  <diagram id="74KgRoFU-ngaeJmfLSAI" name="Page-1">
    <mxGraphModel dx="775" dy="477" grid="1" gridSize="10" guides="1" tooltips="1" connect="1" arrows="1" fold="1" page="1" pageScale="1" pageWidth="827" pageHeight="1169" math="0" shadow="0">
      <root>
        <mxCell id="0" />
        <mxCell id="1" parent="0" />
        <mxCell id="CjXiYFgF1T9gvqFzBede-8" style="edgeStyle=none;rounded=0;orthogonalLoop=1;jettySize=auto;html=1;exitX=0.5;exitY=1;exitDx=0;exitDy=0;exitPerimeter=0;" parent="1" source="CjXiYFgF1T9gvqFzBede-2" target="CjXiYFgF1T9gvqFzBede-3" edge="1">
          <mxGeometry relative="1" as="geometry" />
        </mxCell>
        <mxCell id="CjXiYFgF1T9gvqFzBede-2" value="Escrever &quot;Inserir nome do evento:" style="strokeWidth=2;html=1;shape=mxgraph.flowchart.display;whiteSpace=wrap;rounded=0;shadow=0;glass=0;sketch=0;spacing=11;" parent="1" vertex="1">
          <mxGeometry x="330" y="120" width="140" height="60" as="geometry" />
        </mxCell>
        <mxCell id="CjXiYFgF1T9gvqFzBede-9" style="edgeStyle=none;rounded=0;orthogonalLoop=1;jettySize=auto;html=1;exitX=0.5;exitY=1;exitDx=0;exitDy=0;" parent="1" source="CjXiYFgF1T9gvqFzBede-3" target="CjXiYFgF1T9gvqFzBede-4" edge="1">
          <mxGeometry relative="1" as="geometry" />
        </mxCell>
        <mxCell id="CjXiYFgF1T9gvqFzBede-3" value="Ler nome do evento" style="html=1;strokeWidth=2;shape=manualInput;whiteSpace=wrap;rounded=0;size=26;arcSize=11;shadow=0;glass=0;sketch=0;verticalAlign=middle;spacing=11;spacingTop=12;" parent="1" vertex="1">
          <mxGeometry x="330" y="200" width="140" height="60" as="geometry" />
        </mxCell>
        <mxCell id="CjXiYFgF1T9gvqFzBede-21" style="edgeStyle=none;rounded=0;orthogonalLoop=1;jettySize=auto;html=1;exitX=0.5;exitY=1;exitDx=0;exitDy=0;exitPerimeter=0;entryX=0.499;entryY=0.167;entryDx=0;entryDy=0;entryPerimeter=0;" parent="1" source="CjXiYFgF1T9gvqFzBede-4" target="CjXiYFgF1T9gvqFzBede-5" edge="1">
          <mxGeometry relative="1" as="geometry" />
        </mxCell>
        <mxCell id="CjXiYFgF1T9gvqFzBede-4" value="Escrever &quot;Inserir&lt;br&gt;data do evento&quot;" style="strokeWidth=2;html=1;shape=mxgraph.flowchart.display;whiteSpace=wrap;rounded=0;shadow=0;glass=0;sketch=0;spacing=11;" parent="1" vertex="1">
          <mxGeometry x="330" y="280" width="140" height="60" as="geometry" />
        </mxCell>
        <mxCell id="CjXiYFgF1T9gvqFzBede-11" style="edgeStyle=none;rounded=0;orthogonalLoop=1;jettySize=auto;html=1;exitX=0.5;exitY=1;exitDx=0;exitDy=0;" parent="1" source="CjXiYFgF1T9gvqFzBede-5" target="CjXiYFgF1T9gvqFzBede-6" edge="1">
          <mxGeometry relative="1" as="geometry" />
        </mxCell>
        <mxCell id="CjXiYFgF1T9gvqFzBede-5" value="Ler data&amp;nbsp;do evento" style="html=1;strokeWidth=2;shape=manualInput;whiteSpace=wrap;rounded=0;size=26;arcSize=11;shadow=0;glass=0;sketch=0;verticalAlign=middle;spacing=11;spacingTop=12;" parent="1" vertex="1">
          <mxGeometry x="330" y="360" width="140" height="60" as="geometry" />
        </mxCell>
        <mxCell id="CjXiYFgF1T9gvqFzBede-13" value="Não" style="edgeStyle=none;rounded=0;orthogonalLoop=1;jettySize=auto;html=1;exitX=1;exitY=0.5;exitDx=0;exitDy=0;exitPerimeter=0;entryX=0;entryY=0.5;entryDx=0;entryDy=0;entryPerimeter=0;" parent="1" source="CjXiYFgF1T9gvqFzBede-6" target="CjXiYFgF1T9gvqFzBede-12" edge="1">
          <mxGeometry relative="1" as="geometry" />
        </mxCell>
        <mxCell id="CjXiYFgF1T9gvqFzBede-17" value="Sim" style="edgeStyle=none;rounded=0;orthogonalLoop=1;jettySize=auto;html=1;exitX=0;exitY=0.5;exitDx=0;exitDy=0;exitPerimeter=0;entryX=1;entryY=0.5;entryDx=0;entryDy=0;entryPerimeter=0;" parent="1" source="CjXiYFgF1T9gvqFzBede-6" target="CjXiYFgF1T9gvqFzBede-16" edge="1">
          <mxGeometry relative="1" as="geometry" />
        </mxCell>
        <mxCell id="CjXiYFgF1T9gvqFzBede-6" value="Data do evento&lt;br&gt;é posterior&lt;br&gt;à data atual?" style="strokeWidth=2;html=1;shape=mxgraph.flowchart.decision;whiteSpace=wrap;rounded=0;shadow=0;glass=0;sketch=0;" parent="1" vertex="1">
          <mxGeometry x="330" y="440" width="140" height="100" as="geometry" />
        </mxCell>
        <mxCell id="CjXiYFgF1T9gvqFzBede-15" style="edgeStyle=none;rounded=0;orthogonalLoop=1;jettySize=auto;html=1;exitX=0.5;exitY=1;exitDx=0;exitDy=0;exitPerimeter=0;entryX=0.5;entryY=0;entryDx=0;entryDy=0;entryPerimeter=0;" parent="1" source="CjXiYFgF1T9gvqFzBede-12" edge="1">
          <mxGeometry relative="1" as="geometry">
            <mxPoint x="630" y="540" as="targetPoint" />
          </mxGeometry>
        </mxCell>
        <mxCell id="CjXiYFgF1T9gvqFzBede-12" value="Escrever&lt;br&gt;&quot;Data&amp;nbsp;inválida&quot;" style="strokeWidth=2;html=1;shape=mxgraph.flowchart.display;whiteSpace=wrap;rounded=0;shadow=0;glass=0;sketch=0;spacing=11;" parent="1" vertex="1">
          <mxGeometry x="560" y="460" width="140" height="60" as="geometry" />
        </mxCell>
        <mxCell id="CjXiYFgF1T9gvqFzBede-20" style="edgeStyle=none;rounded=0;orthogonalLoop=1;jettySize=auto;html=1;exitX=0.5;exitY=1;exitDx=0;exitDy=0;exitPerimeter=0;entryX=0.505;entryY=0.2;entryDx=0;entryDy=0;entryPerimeter=0;" parent="1" source="CjXiYFgF1T9gvqFzBede-16" target="CjXiYFgF1T9gvqFzBede-18" edge="1">
          <mxGeometry relative="1" as="geometry" />
        </mxCell>
        <mxCell id="CjXiYFgF1T9gvqFzBede-16" value="Escrever &quot;Inserir palestrantes&quot;" style="strokeWidth=2;html=1;shape=mxgraph.flowchart.display;whiteSpace=wrap;rounded=0;shadow=0;glass=0;sketch=0;spacing=11;" parent="1" vertex="1">
          <mxGeometry x="100" y="460" width="140" height="60" as="geometry" />
        </mxCell>
        <mxCell id="CjXiYFgF1T9gvqFzBede-23" style="edgeStyle=none;rounded=0;orthogonalLoop=1;jettySize=auto;html=1;exitX=0.5;exitY=1;exitDx=0;exitDy=0;entryX=0.5;entryY=0;entryDx=0;entryDy=0;entryPerimeter=0;" parent="1" source="CjXiYFgF1T9gvqFzBede-18" target="CjXiYFgF1T9gvqFzBede-22" edge="1">
          <mxGeometry relative="1" as="geometry" />
        </mxCell>
        <mxCell id="CjXiYFgF1T9gvqFzBede-18" value="Ler dados dos palestrantes" style="html=1;strokeWidth=2;shape=manualInput;whiteSpace=wrap;rounded=0;size=26;arcSize=11;shadow=0;glass=0;sketch=0;verticalAlign=middle;spacing=11;spacingTop=12;" parent="1" vertex="1">
          <mxGeometry x="100" y="540" width="140" height="60" as="geometry" />
        </mxCell>
        <mxCell id="CjXiYFgF1T9gvqFzBede-25" style="edgeStyle=none;rounded=0;orthogonalLoop=1;jettySize=auto;html=1;exitX=0.5;exitY=1;exitDx=0;exitDy=0;exitPerimeter=0;entryX=0.5;entryY=0;entryDx=0;entryDy=0;" parent="1" source="CjXiYFgF1T9gvqFzBede-22" target="CjXiYFgF1T9gvqFzBede-24" edge="1">
          <mxGeometry relative="1" as="geometry" />
        </mxCell>
        <mxCell id="CjXiYFgF1T9gvqFzBede-26" value="Sim" style="edgeLabel;html=1;align=center;verticalAlign=middle;resizable=0;points=[];" parent="CjXiYFgF1T9gvqFzBede-25" vertex="1" connectable="0">
          <mxGeometry x="-0.3583" y="-2" relative="1" as="geometry">
            <mxPoint as="offset" />
          </mxGeometry>
        </mxCell>
        <mxCell id="CjXiYFgF1T9gvqFzBede-43" value="Não" style="edgeStyle=none;rounded=0;orthogonalLoop=1;jettySize=auto;html=1;exitX=1;exitY=0.5;exitDx=0;exitDy=0;exitPerimeter=0;entryX=0;entryY=0.5;entryDx=0;entryDy=0;entryPerimeter=0;" parent="1" source="CjXiYFgF1T9gvqFzBede-22" target="CjXiYFgF1T9gvqFzBede-42" edge="1">
          <mxGeometry relative="1" as="geometry" />
        </mxCell>
        <mxCell id="CjXiYFgF1T9gvqFzBede-22" value="Escrever &quot;Inserir&lt;br&gt;novo participante?&quot;" style="strokeWidth=2;html=1;shape=mxgraph.flowchart.display;whiteSpace=wrap;rounded=0;shadow=0;glass=0;sketch=0;spacing=11;" parent="1" vertex="1">
          <mxGeometry x="100" y="620" width="140" height="60" as="geometry" />
        </mxCell>
        <mxCell id="CjXiYFgF1T9gvqFzBede-32" style="edgeStyle=none;rounded=0;orthogonalLoop=1;jettySize=auto;html=1;exitX=0.5;exitY=1;exitDx=0;exitDy=0;entryX=0.5;entryY=0;entryDx=0;entryDy=0;entryPerimeter=0;" parent="1" source="CjXiYFgF1T9gvqFzBede-24" target="CjXiYFgF1T9gvqFzBede-27" edge="1">
          <mxGeometry relative="1" as="geometry" />
        </mxCell>
        <mxCell id="CjXiYFgF1T9gvqFzBede-33" value="Verdadeiro" style="edgeLabel;html=1;align=center;verticalAlign=middle;resizable=0;points=[];" parent="CjXiYFgF1T9gvqFzBede-32" vertex="1" connectable="0">
          <mxGeometry x="-0.1029" y="1" relative="1" as="geometry">
            <mxPoint as="offset" />
          </mxGeometry>
        </mxCell>
        <mxCell id="CjXiYFgF1T9gvqFzBede-45" value="Falso" style="edgeStyle=none;rounded=0;orthogonalLoop=1;jettySize=auto;html=1;exitX=1;exitY=0.5;exitDx=0;exitDy=0;entryX=0;entryY=0.5;entryDx=0;entryDy=0;entryPerimeter=0;" parent="1" source="CjXiYFgF1T9gvqFzBede-24" target="CjXiYFgF1T9gvqFzBede-44" edge="1">
          <mxGeometry relative="1" as="geometry" />
        </mxCell>
        <mxCell id="CjXiYFgF1T9gvqFzBede-24" value="Se quantidade de participantes &amp;lt; 100" style="rounded=0;whiteSpace=wrap;html=1;strokeWidth=2;" parent="1" vertex="1">
          <mxGeometry x="100" y="720" width="140" height="60" as="geometry" />
        </mxCell>
        <mxCell id="CjXiYFgF1T9gvqFzBede-29" value="" style="edgeStyle=none;rounded=0;orthogonalLoop=1;jettySize=auto;html=1;entryX=0.498;entryY=0.177;entryDx=0;entryDy=0;entryPerimeter=0;" parent="1" source="CjXiYFgF1T9gvqFzBede-27" target="CjXiYFgF1T9gvqFzBede-30" edge="1">
          <mxGeometry relative="1" as="geometry">
            <mxPoint x="170" y="880" as="targetPoint" />
          </mxGeometry>
        </mxCell>
        <mxCell id="CjXiYFgF1T9gvqFzBede-27" value="Escrever &quot;Inserir&lt;br&gt;novo participante&quot;" style="strokeWidth=2;html=1;shape=mxgraph.flowchart.display;whiteSpace=wrap;rounded=0;shadow=0;glass=0;sketch=0;spacing=11;" parent="1" vertex="1">
          <mxGeometry x="100" y="830" width="140" height="60" as="geometry" />
        </mxCell>
        <mxCell id="CjXiYFgF1T9gvqFzBede-36" style="edgeStyle=none;rounded=0;orthogonalLoop=1;jettySize=auto;html=1;exitX=0.5;exitY=1;exitDx=0;exitDy=0;entryX=0.5;entryY=0;entryDx=0;entryDy=0;" parent="1" source="CjXiYFgF1T9gvqFzBede-30" target="CjXiYFgF1T9gvqFzBede-35" edge="1">
          <mxGeometry relative="1" as="geometry" />
        </mxCell>
        <mxCell id="CjXiYFgF1T9gvqFzBede-30" value="Ler dados&lt;br&gt;do participante" style="html=1;strokeWidth=2;shape=manualInput;whiteSpace=wrap;rounded=0;size=26;arcSize=11;shadow=0;glass=0;sketch=0;verticalAlign=middle;spacing=11;spacingTop=12;" parent="1" vertex="1">
          <mxGeometry x="100" y="910" width="140" height="60" as="geometry" />
        </mxCell>
        <mxCell id="CjXiYFgF1T9gvqFzBede-38" style="edgeStyle=none;rounded=0;orthogonalLoop=1;jettySize=auto;html=1;exitX=0;exitY=0.5;exitDx=0;exitDy=0;entryX=0;entryY=0.5;entryDx=0;entryDy=0;entryPerimeter=0;" parent="1" source="CjXiYFgF1T9gvqFzBede-35" target="CjXiYFgF1T9gvqFzBede-22" edge="1">
          <mxGeometry relative="1" as="geometry">
            <mxPoint x="60" y="790" as="targetPoint" />
            <Array as="points">
              <mxPoint x="70" y="1020" />
              <mxPoint x="70" y="650" />
            </Array>
          </mxGeometry>
        </mxCell>
        <mxCell id="CjXiYFgF1T9gvqFzBede-39" value="Verdadeiro" style="edgeLabel;html=1;align=center;verticalAlign=middle;resizable=0;points=[];" parent="CjXiYFgF1T9gvqFzBede-38" vertex="1" connectable="0">
          <mxGeometry x="0.0101" y="2" relative="1" as="geometry">
            <mxPoint as="offset" />
          </mxGeometry>
        </mxCell>
        <mxCell id="CjXiYFgF1T9gvqFzBede-41" value="Falso" style="edgeStyle=none;rounded=0;orthogonalLoop=1;jettySize=auto;html=1;exitX=1;exitY=0.5;exitDx=0;exitDy=0;entryX=0;entryY=0.5;entryDx=0;entryDy=0;entryPerimeter=0;" parent="1" source="CjXiYFgF1T9gvqFzBede-35" target="CjXiYFgF1T9gvqFzBede-40" edge="1">
          <mxGeometry relative="1" as="geometry" />
        </mxCell>
        <mxCell id="CjXiYFgF1T9gvqFzBede-35" value="Se idade do&lt;br&gt;participante &amp;gt;= 18" style="rounded=0;whiteSpace=wrap;html=1;strokeWidth=2;" parent="1" vertex="1">
          <mxGeometry x="100" y="990" width="140" height="60" as="geometry" />
        </mxCell>
        <mxCell id="CjXiYFgF1T9gvqFzBede-54" style="edgeStyle=none;rounded=0;orthogonalLoop=1;jettySize=auto;html=1;exitX=0.5;exitY=1;exitDx=0;exitDy=0;exitPerimeter=0;entryX=0;entryY=0.5;entryDx=0;entryDy=0;entryPerimeter=0;" parent="1" source="CjXiYFgF1T9gvqFzBede-40" target="CjXiYFgF1T9gvqFzBede-22" edge="1">
          <mxGeometry relative="1" as="geometry">
            <mxPoint x="90" y="700" as="targetPoint" />
            <Array as="points">
              <mxPoint x="405" y="1080" />
              <mxPoint x="20" y="1080" />
              <mxPoint x="20" y="630" />
              <mxPoint x="100" y="630" />
            </Array>
          </mxGeometry>
        </mxCell>
        <mxCell id="CjXiYFgF1T9gvqFzBede-40" value="Escrever&lt;br&gt;&quot;Participante não possui&lt;br&gt;idade mínima&quot;" style="strokeWidth=2;html=1;shape=mxgraph.flowchart.display;whiteSpace=wrap;rounded=0;shadow=0;glass=0;sketch=0;spacing=11;" parent="1" vertex="1">
          <mxGeometry x="320" y="990" width="170" height="60" as="geometry" />
        </mxCell>
        <mxCell id="CjXiYFgF1T9gvqFzBede-49" style="edgeStyle=none;rounded=0;orthogonalLoop=1;jettySize=auto;html=1;exitX=1;exitY=0.5;exitDx=0;exitDy=0;exitPerimeter=0;entryX=0;entryY=0.5;entryDx=0;entryDy=0;entryPerimeter=0;" parent="1" source="CjXiYFgF1T9gvqFzBede-42" target="CjXiYFgF1T9gvqFzBede-48" edge="1">
          <mxGeometry relative="1" as="geometry" />
        </mxCell>
        <mxCell id="CjXiYFgF1T9gvqFzBede-50" value="Sim" style="edgeLabel;html=1;align=center;verticalAlign=middle;resizable=0;points=[];" parent="CjXiYFgF1T9gvqFzBede-49" vertex="1" connectable="0">
          <mxGeometry x="-0.0943" y="2" relative="1" as="geometry">
            <mxPoint as="offset" />
          </mxGeometry>
        </mxCell>
        <mxCell id="CjXiYFgF1T9gvqFzBede-51" style="edgeStyle=none;rounded=0;orthogonalLoop=1;jettySize=auto;html=1;exitX=0.5;exitY=0;exitDx=0;exitDy=0;exitPerimeter=0;entryX=0;entryY=0.5;entryDx=0;entryDy=0;entryPerimeter=0;" parent="1" source="CjXiYFgF1T9gvqFzBede-42" edge="1">
          <mxGeometry relative="1" as="geometry">
            <Array as="points">
              <mxPoint x="390" y="570" />
            </Array>
            <mxPoint x="560" y="570" as="targetPoint" />
          </mxGeometry>
        </mxCell>
        <mxCell id="CjXiYFgF1T9gvqFzBede-52" value="Não" style="edgeLabel;html=1;align=center;verticalAlign=middle;resizable=0;points=[];" parent="CjXiYFgF1T9gvqFzBede-51" vertex="1" connectable="0">
          <mxGeometry x="-0.1684" y="1" relative="1" as="geometry">
            <mxPoint as="offset" />
          </mxGeometry>
        </mxCell>
        <mxCell id="CjXiYFgF1T9gvqFzBede-42" value="Escrever &quot;Listar participantes e&lt;br&gt;palestrantes?&quot;" style="strokeWidth=2;html=1;shape=mxgraph.flowchart.display;whiteSpace=wrap;rounded=0;shadow=0;glass=0;sketch=0;spacing=11;" parent="1" vertex="1">
          <mxGeometry x="320" y="620" width="140" height="60" as="geometry" />
        </mxCell>
        <mxCell id="CjXiYFgF1T9gvqFzBede-47" style="edgeStyle=none;rounded=0;orthogonalLoop=1;jettySize=auto;html=1;exitX=0.5;exitY=0;exitDx=0;exitDy=0;exitPerimeter=0;entryX=0.603;entryY=1.021;entryDx=0;entryDy=0;entryPerimeter=0;" parent="1" source="CjXiYFgF1T9gvqFzBede-44" target="CjXiYFgF1T9gvqFzBede-42" edge="1">
          <mxGeometry relative="1" as="geometry" />
        </mxCell>
        <mxCell id="CjXiYFgF1T9gvqFzBede-44" value="Escrever&amp;nbsp;&quot;Limite de&lt;br&gt;participantes atingido&quot;" style="strokeWidth=2;html=1;shape=mxgraph.flowchart.display;whiteSpace=wrap;rounded=0;shadow=0;glass=0;sketch=0;spacing=11;" parent="1" vertex="1">
          <mxGeometry x="320" y="720" width="170" height="60" as="geometry" />
        </mxCell>
        <mxCell id="CjXiYFgF1T9gvqFzBede-53" style="edgeStyle=none;rounded=0;orthogonalLoop=1;jettySize=auto;html=1;exitX=0.5;exitY=0;exitDx=0;exitDy=0;exitPerimeter=0;entryX=0.5;entryY=1;entryDx=0;entryDy=0;entryPerimeter=0;" parent="1" source="CjXiYFgF1T9gvqFzBede-48" edge="1">
          <mxGeometry relative="1" as="geometry">
            <mxPoint x="630" y="600" as="targetPoint" />
          </mxGeometry>
        </mxCell>
        <mxCell id="CjXiYFgF1T9gvqFzBede-48" value="Listar participantes&lt;br&gt;e palestrantes" style="strokeWidth=2;html=1;shape=mxgraph.flowchart.display;whiteSpace=wrap;rounded=0;shadow=0;glass=0;sketch=0;spacing=11;" parent="1" vertex="1">
          <mxGeometry x="560" y="620" width="140" height="60" as="geometry" />
        </mxCell>
        <mxCell id="6rRnVxCccnqVtpjHpuXN-3" style="edgeStyle=orthogonalEdgeStyle;rounded=0;orthogonalLoop=1;jettySize=auto;html=1;exitX=0.5;exitY=1;exitDx=0;exitDy=0;entryX=0.5;entryY=0;entryDx=0;entryDy=0;entryPerimeter=0;" edge="1" parent="1" source="6rRnVxCccnqVtpjHpuXN-2" target="CjXiYFgF1T9gvqFzBede-2">
          <mxGeometry relative="1" as="geometry" />
        </mxCell>
        <mxCell id="6rRnVxCccnqVtpjHpuXN-2" value="Início" style="rounded=1;whiteSpace=wrap;html=1;strokeWidth=2;arcSize=50;" vertex="1" parent="1">
          <mxGeometry x="330" y="40" width="140" height="60" as="geometry" />
        </mxCell>
        <mxCell id="6rRnVxCccnqVtpjHpuXN-4" value="Fim" style="rounded=1;whiteSpace=wrap;html=1;strokeWidth=2;arcSize=50;" vertex="1" parent="1">
          <mxGeometry x="560" y="540" width="140" height="60" as="geometry" />
        </mxCell>
      </root>
    </mxGraphModel>
  </diagram>
</mxfile>
